Coordinates
version=1
nRows=10
nColumns=40
inDegrees=yes

Units are S.I. units (second, meters, Newtons, ...)
If the header above contains a line with 'inDegrees', this indicates whether rotational values are in degrees (yes) or radians (no).

endheader
time	pelvis_tilt	pelvis_list	pelvis_rotation	pelvis_tx	pelvis_ty	pelvis_tz	hip_flexion_r	hip_adduction_r	hip_rotation_r	knee_angle_r	knee_angle_r_beta	ankle_angle_r	subtalar_angle_r	mtp_angle_r	hip_flexion_l	hip_adduction_l	hip_rotation_l	knee_angle_l	knee_angle_l_beta	ankle_angle_l	subtalar_angle_l	mtp_angle_l	lumbar_extension	lumbar_bending	lumbar_rotation	arm_flex_r	arm_add_r	arm_rot_r	elbow_flex_r	pro_sup_r	wrist_flex_r	wrist_dev_r	arm_flex_l	arm_add_l	arm_rot_l	elbow_flex_l	pro_sup_l	wrist_flex_l	wrist_dev_l
      0.00000000	      4.92684932	     -2.14436552	     -1.46496476	     -0.39796566	      1.20233269	      0.02181769	     33.38235865	     -1.36680939	     -0.37811724	     59.93246331	      1.04601881	     -7.20362624	    -26.19359142	      0.00000000	     66.74846479	     -0.02575749	     13.78305085	     91.90527092	      1.60404958	     17.85848316	    -27.38084074	      0.00000000	    -69.31642257	     -0.93518773	      7.07448127	     76.09381531	    -11.34185116	      1.22441490	     55.38058795	      7.50230417	      0.00000000	      0.00000000	     89.87605683	     -1.01382072	     31.39784410	     32.40552288	     85.04671102	      0.00000000	      0.00000000
      0.00833333	      5.08855569	     -2.65665818	     -1.42895652	     -0.39802228	      1.20268902	      0.02206810	     34.20848811	     -1.04585355	     -0.69181161	     62.78480941	      1.09580164	     -6.54659527	    -26.33381761	      0.00000000	     65.25455295	     -0.57650241	     14.08798930	     89.01453482	      1.55359671	     17.68602808	    -27.43773235	      0.00000000	    -69.47856207	     -0.63387483	      7.60242704	     76.12241404	    -11.41360826	      1.26147789	     55.40038775	      7.54084578	      0.00000000	      0.00000000	     89.87712919	     -0.93673305	     31.30131458	     32.30129091	     84.89232870	      0.00000000	      0.00000000
      0.01666667	      5.25423045	     -3.17961536	     -1.39983591	     -0.39807624	      1.20289131	      0.02234219	     35.12957892	     -0.73289900	     -1.02160534	     65.69357304	      1.14656915	     -5.98521503	    -26.38688703	      0.00000000	     63.62446076	     -1.16033845	     14.40170968	     86.03087552	      1.50152204	     17.39109666	    -27.53654517	      0.00000000	    -69.63800733	     -0.33314037	      8.19681619	     76.16311947	    -11.51812425	      1.29421360	     55.39508653	      7.58676470	      0.00000000	      0.00000000	     89.87671573	     -0.80532367	     31.23393164	     32.24268897	     84.79989667	      0.00000000	      0.00000000
      0.02500000	      5.37004670	     -2.94473254	     -1.58546028	     -0.39806388	      1.20291171	      0.02197107	     36.40102206	     -1.19787643	     -0.81307187	     68.97607621	      1.20385963	     -4.79715986	    -25.38016790	      0.00000000	     61.81593679	     -1.37918098	     13.88829488	     82.78217223	      1.44482147	     16.20911475	    -28.80943128	      0.00000000	    -69.73937616	     -0.47312036	      8.08773210	     76.19113597	    -11.71391930	      1.83249007	     55.51967829	      7.35669621	      0.00000000	      0.00000000	     89.88033545	     -0.71092636	     30.87615858	     32.10939638	     85.08062552	      0.00000000	      0.00000000
      0.03333333	      5.53878210	     -3.62040205	     -1.51368769	     -0.39810195	      1.20314169	      0.02211291	     37.43573296	     -0.78357162	     -1.25621734	     71.82739403	      1.25362452	     -4.36128559	    -25.38881833	      0.00000000	     60.02099949	     -2.11076145	     14.30665761	     79.72358084	      1.39143898	     15.51028278	    -28.66989211	      0.00000000	    -69.90959525	     -0.02570107	      8.75491837	     76.26488480	    -11.72810349	      1.89344952	     55.48411519	      7.32408135	      0.00000000	      0.00000000	     89.88102873	     -0.63819599	     30.89845728	     31.91144028	     85.10906871	      0.00000000	      0.00000000
      0.04166667	      5.46486829	     -3.48010797	     -1.59203093	     -0.39822111	      1.20326163	      0.02163039	     38.99512644	     -1.22190668	     -1.16653244	     74.94032274	      1.30795537	     -3.18618175	    -24.33210901	      0.00000000	     58.26955121	     -2.31390844	     13.93629430	     76.47111288	      1.33467270	     13.90800542	    -29.94803112	      0.00000000	    -69.83581676	     -0.01364655	      8.74325013	     76.32058763	    -11.91055685	      2.16545843	     55.56272857	      6.93273700	      0.00000000	      0.00000000	     89.88376144	     -0.46768050	     30.47614346	     31.73989273	     85.07220921	      0.00000000	      0.00000000
      0.05000000	      5.45650099	     -4.16409757	     -1.50259114	     -0.39840466	      1.20338761	      0.02195899	     40.39179045	     -0.75818333	     -1.50374167	     77.87681853	      1.35920689	     -2.66237351	    -24.32078568	      0.00000000	     56.36676747	     -2.95335297	     14.59577411	     73.21669712	      1.27787243	     13.13579618	    -29.67864929	      0.00000000	    -69.86412662	      0.45531795	      9.41024455	     76.41051893	    -11.89408260	      2.21808116	     55.57817284	      7.14997450	      0.00000000	      0.00000000	     89.88497747	     -0.43727517	     30.36543643	     31.64842225	     84.81489420	      0.00000000	      0.00000000
      0.05833333	      5.83316965	     -4.18107318	     -1.78097093	     -0.39771059	      1.20356011	      0.02171894	     41.57632200	     -0.82719697	     -1.17519615	     80.93594373	      1.41259870	     -1.48966522	    -23.23253889	      0.00000000	     54.13207748	     -3.76682712	     13.65718486	     70.09908974	      1.22345992	     11.26988474	    -30.43522733	      0.00000000	    -70.16478788	      0.35629969	      9.61137817	     76.42428292	    -12.04906782	      2.59393819	     55.57802134	      6.82099651	      0.00000000	      0.00000000	     89.88382641	     -0.25503653	     30.16248723	     31.14365495	     85.06746802	      0.00000000	      0.00000000
      0.06666667	      5.69587603	     -4.34658881	     -1.79695752	     -0.39793199	      1.20341062	      0.02136052	     43.38570104	     -0.89878152	     -1.22173065	     83.73279054	      1.46141289	     -0.91726607	    -22.82711819	      0.00000000	     52.21649091	     -4.19921752	     13.61567632	     66.86146956	      1.16695279	      9.91800994	    -30.46463674	      0.00000000	    -70.05503386	      0.58660548	      9.86316239	     76.52669611	    -12.10359013	      2.80543400	     55.58782153	      6.84459494	      0.00000000	      0.00000000	     89.88525539	     -0.18327652	     29.98213265	     30.93687775	     85.06429373	      0.00000000	      0.00000000
      0.07500000	      5.68623682	     -5.02307289	     -1.72284055	     -0.39787185	      1.20346493	      0.02144536	     45.01988596	     -0.50350367	     -1.63797672	     86.38744683	      1.50774538	     -0.48589644	    -22.69030928	      0.00000000	     50.16757277	     -5.01485926	     13.92920468	     63.61089000	      1.11021947	      8.84052689	    -30.12119969	      0.00000000	    -70.08208699	      1.08876177	     10.55901554	     76.59541794	    -12.09641292	      2.94537776	     55.54337069	      6.97600754	      0.00000000	      0.00000000	     89.88523247	     -0.14387124	     29.93661165	     30.69640321	     84.98298367	      0.00000000	      0.00000000
